<svg width="25" height="25" viewBox="0 0 25 25" fill="none" xmlns="http://www.w3.org/2000/svg">
<path d="M13.0102 17.9006L17.9238 12.8156C18.0132 12.719 18.0826 12.6056 18.1281 12.4821C18.224 12.237 18.2193 11.9639 18.1151 11.7222C18.0654 11.6003 17.9921 11.4894 17.8995 11.3959L12.8146 6.48226C12.7197 6.39063 12.6078 6.31858 12.4851 6.27021C12.3625 6.22185 12.2315 6.19812 12.0996 6.20037C11.8334 6.20494 11.5798 6.31509 11.3948 6.50659C11.2097 6.69809 11.1083 6.95526 11.1129 7.22152C11.1174 7.48779 11.2276 7.74133 11.4191 7.92638L14.775 11.1594L7.18609 11.2894C6.92091 11.2939 6.6684 11.4036 6.48411 11.5944C6.29981 11.7851 6.19883 12.0412 6.20337 12.3064C6.20792 12.5716 6.31761 12.8241 6.50834 13.0084C6.69906 13.1927 6.95518 13.2937 7.22036 13.2891L14.8092 13.1591L11.5661 16.5051C11.474 16.5997 11.4015 16.7115 11.3528 16.8342C11.3041 16.957 11.2802 17.0881 11.2825 17.2201C11.2848 17.3521 11.3131 17.4823 11.366 17.6033C11.4188 17.7243 11.4951 17.8336 11.5904 17.9249C11.685 18.017 11.7968 18.0895 11.9196 18.1382C12.0423 18.1869 12.1734 18.2108 12.3054 18.2085C12.4374 18.2062 12.5676 18.1779 12.6886 18.125C12.8096 18.0722 12.9189 17.9959 13.0102 17.9006Z" fill="#FAFAFA"/>
</svg>
