<svg width="34" height="34" viewBox="0 0 34 34" fill="none" xmlns="http://www.w3.org/2000/svg">
<g clip-path="url(#clip0_65_2142)">
<path d="M17.0142 34.0285C26.4104 34.0285 34.0275 26.4114 34.0275 17.0152C34.0275 7.61904 26.4104 0.00195312 17.0142 0.00195312C7.61807 0.00195312 0.000976562 7.61904 0.000976562 17.0152C0.000976562 26.4114 7.61807 34.0285 17.0142 34.0285Z" fill="#D7EF41"/>
<path fill-rule="evenodd" clip-rule="evenodd" d="M7.68637 16.8291C12.6419 14.656 15.9545 13.2515 17.624 12.5625C22.3411 10.6015 23.3216 10.257 23.9576 10.2305C24.0901 10.2305 24.4081 10.257 24.6201 10.416C24.7791 10.5485 24.8321 10.734 24.8586 10.8665C24.8851 10.999 24.9116 11.2905 24.8851 11.529C24.6201 14.2055 23.5336 20.7511 22.9506 23.7457C22.7121 25.0177 22.2351 25.4417 21.7846 25.4947C20.8041 25.5742 20.0355 24.8322 19.0815 24.2227C17.5975 23.2422 16.7495 22.6327 15.292 21.6786C13.6225 20.5656 14.709 19.9561 15.663 18.9756C15.9015 18.7106 20.2741 14.762 20.3536 14.391C20.3536 14.338 20.3801 14.179 20.2741 14.0995C20.168 14.02 20.0355 14.0465 19.9295 14.073C19.7705 14.0995 17.3855 15.6895 12.7479 18.8166C12.0589 19.2936 11.4494 19.5056 10.8929 19.5056C10.2834 19.5056 9.11739 19.1611 8.24287 18.8696C7.18286 18.5251 6.33485 18.3396 6.41435 17.7566C6.46735 17.4651 6.89136 17.1471 7.68637 16.8291Z" fill="#181818"/>
</g>
<defs>
<clipPath id="clip0_65_2142">
<rect width="34" height="34" fill="white"/>
</clipPath>
</defs>
</svg>
