<svg width="266" height="407" viewBox="0 0 266 407" fill="none" xmlns="http://www.w3.org/2000/svg">
<path d="M-4.91004 68.3867C-4.91095 68.3882 92.1275 110.462 108.651 123.828L163.705 181.927L193.721 245.856L196.155 332.761L156.594 398.823" stroke="#D7EF41"/>
<path d="M-67.3046 91.1103C-67.3055 91.1118 29.7329 133.186 46.257 146.552L101.311 204.651L131.326 268.58L133.76 355.485L94.199 421.547" stroke="#D7EF41"/>
<path d="M-126.276 118.983C-126.277 118.985 -29.2387 161.059 -12.7147 174.425L42.3389 232.524L72.3547 296.453L74.7886 383.358L35.2273 449.42" stroke="#D7EF41"/>
<path d="M-183.98 144.74C-183.981 144.742 -86.9428 186.816 -70.4188 200.182L-15.3652 258.281L14.6506 322.21L17.0845 409.115L-22.4768 475.177" stroke="#D7EF41"/>
</svg>
