<svg width="255" height="361" viewBox="0 0 255 361" fill="none" xmlns="http://www.w3.org/2000/svg">
<path d="M155.182 299.809C155.183 299.808 97.5637 255.492 88.7922 243.812L61.8436 195.856L52.5601 148.214L65.5131 89.8845L102.96 52.4897" stroke="#D7EF41"/>
<path d="M200.577 295.128C200.578 295.128 142.959 250.811 134.188 239.131L107.239 191.175L97.9556 143.533L110.909 85.2038L148.355 47.8091" stroke="#D7EF41"/>
<path d="M244.558 286.442C244.559 286.441 186.94 242.124 178.168 230.445L151.22 182.489L141.936 134.847L154.889 76.5173L192.336 39.1225" stroke="#D7EF41"/>
<path d="M287.336 278.954C287.337 278.953 229.718 234.636 220.947 222.957L193.998 175.001L184.714 127.359L197.667 69.029L235.114 31.6343" stroke="#D7EF41"/>
</svg>
