<svg width="704" height="226" viewBox="0 0 704 226" fill="none" xmlns="http://www.w3.org/2000/svg">
<mask id="path-1-outside-1_192_20" maskUnits="userSpaceOnUse" x="0" y="36" width="704" height="156" fill="black">
<rect fill="white" y="36" width="704" height="156"/>
<path d="M10.26 182V52.4H36.18V104.06H116.64V52.4H142.56V182H116.64V130.34H36.18V182H10.26ZM187.845 182C183.285 182 179.025 180.86 175.065 178.58C171.225 176.18 168.165 173.06 165.885 169.22C163.605 165.38 162.465 161.18 162.465 156.62V116.84H242.745V104.24C242.745 104 242.625 103.76 242.385 103.52C242.145 103.28 241.905 103.16 241.665 103.16H162.465V77.6H242.925C247.605 77.6 251.865 78.8 255.705 81.2C259.545 83.48 262.605 86.54 264.885 90.38C267.165 94.22 268.305 98.42 268.305 102.98V182H187.845ZM189.105 156.44H242.745V139.7H188.025V155.36C188.025 155.6 188.145 155.84 188.385 156.08C188.625 156.32 188.865 156.44 189.105 156.44ZM313.186 182C308.506 182 304.246 180.86 300.406 178.58C296.566 176.18 293.446 173.06 291.046 169.22C288.766 165.38 287.626 161.18 287.626 156.62V46.1H313.186V77.6H352.966V103.16H313.186V155.36C313.186 155.6 313.306 155.84 313.546 156.08C313.786 156.32 314.026 156.44 314.266 156.44H352.966V182H313.186ZM397.553 182C392.993 182 388.733 180.86 384.773 178.58C380.933 176.18 377.873 173.06 375.593 169.22C373.313 165.38 372.173 161.18 372.173 156.62V116.84H452.453V104.24C452.453 104 452.333 103.76 452.093 103.52C451.853 103.28 451.613 103.16 451.373 103.16H372.173V77.6H452.633C457.313 77.6 461.573 78.8 465.413 81.2C469.253 83.48 472.313 86.54 474.593 90.38C476.873 94.22 478.013 98.42 478.013 102.98V182H397.553ZM398.813 156.44H452.453V139.7H397.733V155.36C397.733 155.6 397.853 155.84 398.093 156.08C398.333 156.32 398.573 156.44 398.813 156.44ZM492.934 182V102.98C492.934 98.42 494.074 94.22 496.354 90.38C498.754 86.54 501.874 83.48 505.714 81.2C509.674 78.8 513.934 77.6 518.494 77.6H576.274V103.16H519.574C519.334 103.16 519.094 103.28 518.854 103.52C518.614 103.76 518.494 104 518.494 104.24V182H492.934ZM613.232 182C608.672 182 604.472 180.86 600.632 178.58C596.792 176.18 593.672 173.06 591.272 169.22C588.992 165.38 587.852 161.18 587.852 156.62V102.98C587.852 98.42 588.992 94.22 591.272 90.38C593.672 86.54 596.792 83.48 600.632 81.2C604.472 78.8 608.672 77.6 613.232 77.6H668.312C672.992 77.6 677.252 78.8 681.092 81.2C684.932 83.48 687.992 86.54 690.272 90.38C692.552 94.22 693.692 98.42 693.692 102.98V156.62C693.692 161.18 692.552 165.38 690.272 169.22C687.992 173.06 684.932 176.18 681.092 178.58C677.252 180.86 672.992 182 668.312 182H613.232ZM614.492 156.44H667.052C667.292 156.44 667.532 156.32 667.772 156.08C668.012 155.84 668.132 155.6 668.132 155.36V104.24C668.132 104 668.012 103.76 667.772 103.52C667.532 103.28 667.292 103.16 667.052 103.16H614.492C614.252 103.16 614.012 103.28 613.772 103.52C613.532 103.76 613.412 104 613.412 104.24V155.36C613.412 155.6 613.532 155.84 613.772 156.08C614.012 156.32 614.252 156.44 614.492 156.44Z"/>
</mask>
<path d="M10.26 182V52.4H36.18V104.06H116.64V52.4H142.56V182H116.64V130.34H36.18V182H10.26ZM187.845 182C183.285 182 179.025 180.86 175.065 178.58C171.225 176.18 168.165 173.06 165.885 169.22C163.605 165.38 162.465 161.18 162.465 156.62V116.84H242.745V104.24C242.745 104 242.625 103.76 242.385 103.52C242.145 103.28 241.905 103.16 241.665 103.16H162.465V77.6H242.925C247.605 77.6 251.865 78.8 255.705 81.2C259.545 83.48 262.605 86.54 264.885 90.38C267.165 94.22 268.305 98.42 268.305 102.98V182H187.845ZM189.105 156.44H242.745V139.7H188.025V155.36C188.025 155.6 188.145 155.84 188.385 156.08C188.625 156.32 188.865 156.44 189.105 156.44ZM313.186 182C308.506 182 304.246 180.86 300.406 178.58C296.566 176.18 293.446 173.06 291.046 169.22C288.766 165.38 287.626 161.18 287.626 156.62V46.1H313.186V77.6H352.966V103.16H313.186V155.36C313.186 155.6 313.306 155.84 313.546 156.08C313.786 156.32 314.026 156.44 314.266 156.44H352.966V182H313.186ZM397.553 182C392.993 182 388.733 180.86 384.773 178.58C380.933 176.18 377.873 173.06 375.593 169.22C373.313 165.38 372.173 161.18 372.173 156.62V116.84H452.453V104.24C452.453 104 452.333 103.76 452.093 103.52C451.853 103.28 451.613 103.16 451.373 103.16H372.173V77.6H452.633C457.313 77.6 461.573 78.8 465.413 81.2C469.253 83.48 472.313 86.54 474.593 90.38C476.873 94.22 478.013 98.42 478.013 102.98V182H397.553ZM398.813 156.44H452.453V139.7H397.733V155.36C397.733 155.6 397.853 155.84 398.093 156.08C398.333 156.32 398.573 156.44 398.813 156.44ZM492.934 182V102.98C492.934 98.42 494.074 94.22 496.354 90.38C498.754 86.54 501.874 83.48 505.714 81.2C509.674 78.8 513.934 77.6 518.494 77.6H576.274V103.16H519.574C519.334 103.16 519.094 103.28 518.854 103.52C518.614 103.76 518.494 104 518.494 104.24V182H492.934ZM613.232 182C608.672 182 604.472 180.86 600.632 178.58C596.792 176.18 593.672 173.06 591.272 169.22C588.992 165.38 587.852 161.18 587.852 156.62V102.98C587.852 98.42 588.992 94.22 591.272 90.38C593.672 86.54 596.792 83.48 600.632 81.2C604.472 78.8 608.672 77.6 613.232 77.6H668.312C672.992 77.6 677.252 78.8 681.092 81.2C684.932 83.48 687.992 86.54 690.272 90.38C692.552 94.22 693.692 98.42 693.692 102.98V156.62C693.692 161.18 692.552 165.38 690.272 169.22C687.992 173.06 684.932 176.18 681.092 178.58C677.252 180.86 672.992 182 668.312 182H613.232ZM614.492 156.44H667.052C667.292 156.44 667.532 156.32 667.772 156.08C668.012 155.84 668.132 155.6 668.132 155.36V104.24C668.132 104 668.012 103.76 667.772 103.52C667.532 103.28 667.292 103.16 667.052 103.16H614.492C614.252 103.16 614.012 103.28 613.772 103.52C613.532 103.76 613.412 104 613.412 104.24V155.36C613.412 155.6 613.532 155.84 613.772 156.08C614.012 156.32 614.252 156.44 614.492 156.44Z" fill="url(#paint0_linear_192_20)"/>
<path d="M10.26 182H0.260001V192H10.26V182ZM10.26 52.4V42.4H0.260001V52.4H10.26ZM36.18 52.4H46.18V42.4H36.18V52.4ZM36.18 104.06H26.18V114.06H36.18V104.06ZM116.64 104.06V114.06H126.64V104.06H116.64ZM116.64 52.4V42.4H106.64V52.4H116.64ZM142.56 52.4H152.56V42.4H142.56V52.4ZM142.56 182V192H152.56V182H142.56ZM116.64 182H106.64V192H116.64V182ZM116.64 130.34H126.64V120.34H116.64V130.34ZM36.18 130.34V120.34H26.18V130.34H36.18ZM36.18 182V192H46.18V182H36.18ZM20.26 182V52.4H0.260001V182H20.26ZM10.26 62.4H36.18V42.4H10.26V62.4ZM26.18 52.4V104.06H46.18V52.4H26.18ZM36.18 114.06H116.64V94.06H36.18V114.06ZM126.64 104.06V52.4H106.64V104.06H126.64ZM116.64 62.4H142.56V42.4H116.64V62.4ZM132.56 52.4V182H152.56V52.4H132.56ZM142.56 172H116.64V192H142.56V172ZM126.64 182V130.34H106.64V182H126.64ZM116.64 120.34H36.18V140.34H116.64V120.34ZM26.18 130.34V182H46.18V130.34H26.18ZM36.18 172H10.26V192H36.18V172ZM175.065 178.58L169.765 187.06L169.919 187.156L170.076 187.246L175.065 178.58ZM165.885 169.22L157.287 174.325L165.885 169.22ZM162.465 116.84V106.84H152.465V116.84H162.465ZM242.745 116.84V126.84H252.745V116.84H242.745ZM162.465 103.16H152.465V113.16H162.465V103.16ZM162.465 77.6V67.6H152.465V77.6H162.465ZM255.705 81.2L250.405 89.68L250.502 89.7404L250.6 89.7985L255.705 81.2ZM264.885 90.38L256.287 95.4854V95.4854L264.885 90.38ZM268.305 182V192H278.305V182H268.305ZM242.745 156.44V166.44H252.745V156.44H242.745ZM242.745 139.7H252.745V129.7H242.745V139.7ZM188.025 139.7V129.7H178.025V139.7H188.025ZM187.845 172C185.041 172 182.501 171.322 180.055 169.914L170.076 187.246C175.55 190.398 181.53 192 187.845 192V172ZM180.365 170.1C177.859 168.533 175.938 166.563 174.484 164.115L157.287 174.325C160.393 179.557 164.592 183.827 169.765 187.06L180.365 170.1ZM174.484 164.115C173.141 161.853 172.465 159.423 172.465 156.62H152.465C152.465 162.937 154.069 168.907 157.287 174.325L174.484 164.115ZM172.465 156.62V116.84H152.465V156.62H172.465ZM162.465 126.84H242.745V106.84H162.465V126.84ZM252.745 116.84V104.24H232.745V116.84H252.745ZM252.745 104.24C252.745 100.412 250.787 97.7789 249.457 96.4489L235.314 110.591C234.464 109.741 232.745 107.588 232.745 104.24H252.745ZM249.457 96.4489C248.127 95.119 245.493 93.16 241.665 93.16V113.16C238.318 113.16 236.164 111.441 235.314 110.591L249.457 96.4489ZM241.665 93.16H162.465V113.16H241.665V93.16ZM172.465 103.16V77.6H152.465V103.16H172.465ZM162.465 87.6H242.925V67.6H162.465V87.6ZM242.925 87.6C245.797 87.6 248.21 88.3077 250.405 89.68L261.005 72.72C255.521 69.2922 249.414 67.6 242.925 67.6V87.6ZM250.6 89.7985C253.002 91.2246 254.861 93.0836 256.287 95.4854L273.484 85.2746C270.35 79.9964 266.089 75.7354 260.811 72.6014L250.6 89.7985ZM256.287 95.4854C257.629 97.7465 258.305 100.177 258.305 102.98H278.305C278.305 96.663 276.701 90.6935 273.484 85.2746L256.287 95.4854ZM258.305 102.98V182H278.305V102.98H258.305ZM268.305 172H187.845V192H268.305V172ZM189.105 166.44H242.745V146.44H189.105V166.44ZM252.745 156.44V139.7H232.745V156.44H252.745ZM242.745 129.7H188.025V149.7H242.745V129.7ZM178.025 139.7V155.36H198.025V139.7H178.025ZM178.025 155.36C178.025 159.188 179.984 161.821 181.314 163.151L195.457 149.009C196.306 149.859 198.025 152.012 198.025 155.36H178.025ZM181.314 163.151C182.644 164.481 185.278 166.44 189.105 166.44V146.44C192.453 146.44 194.607 148.159 195.457 149.009L181.314 163.151ZM300.406 178.58L295.106 187.06L295.203 187.12L295.301 187.179L300.406 178.58ZM291.046 169.22L282.447 174.325L282.506 174.423L282.566 174.52L291.046 169.22ZM287.626 46.1V36.1H277.626V46.1H287.626ZM313.186 46.1H323.186V36.1H313.186V46.1ZM313.186 77.6H303.186V87.6H313.186V77.6ZM352.966 77.6H362.966V67.6H352.966V77.6ZM352.966 103.16V113.16H362.966V103.16H352.966ZM313.186 103.16V93.16H303.186V103.16H313.186ZM352.966 156.44H362.966V146.44H352.966V156.44ZM352.966 182V192H362.966V182H352.966ZM313.186 172C310.213 172 307.731 171.299 305.511 169.981L295.301 187.179C300.761 190.421 306.799 192 313.186 192V172ZM305.706 170.1C303.154 168.505 301.121 166.472 299.526 163.92L282.566 174.52C285.771 179.648 289.978 183.855 295.106 187.06L305.706 170.1ZM299.645 164.115C298.302 161.853 297.626 159.423 297.626 156.62H277.626C277.626 162.937 279.23 168.907 282.447 174.325L299.645 164.115ZM297.626 156.62V46.1H277.626V156.62H297.626ZM287.626 56.1H313.186V36.1H287.626V56.1ZM303.186 46.1V77.6H323.186V46.1H303.186ZM313.186 87.6H352.966V67.6H313.186V87.6ZM342.966 77.6V103.16H362.966V77.6H342.966ZM352.966 93.16H313.186V113.16H352.966V93.16ZM303.186 103.16V155.36H323.186V103.16H303.186ZM303.186 155.36C303.186 159.188 305.145 161.821 306.475 163.151L320.617 149.009C321.467 149.859 323.186 152.012 323.186 155.36H303.186ZM306.475 163.151C307.805 164.481 310.438 166.44 314.266 166.44V146.44C317.614 146.44 319.767 148.159 320.617 149.009L306.475 163.151ZM314.266 166.44H352.966V146.44H314.266V166.44ZM342.966 156.44V182H362.966V156.44H342.966ZM352.966 172H313.186V192H352.966V172ZM384.772 178.58L379.473 187.06L379.626 187.156L379.783 187.246L384.772 178.58ZM375.592 169.22L366.994 174.325L375.592 169.22ZM372.172 116.84V106.84H362.172V116.84H372.172ZM452.453 116.84V126.84H462.453V116.84H452.453ZM372.172 103.16H362.172V113.16H372.172V103.16ZM372.172 77.6V67.6H362.172V77.6H372.172ZM465.413 81.2L460.113 89.68L460.209 89.7404L460.307 89.7985L465.413 81.2ZM474.592 90.38L465.994 95.4854V95.4854L474.592 90.38ZM478.013 182V192H488.013V182H478.013ZM452.453 156.44V166.44H462.453V156.44H452.453ZM452.453 139.7H462.453V129.7H452.453V139.7ZM397.733 139.7V129.7H387.733V139.7H397.733ZM397.552 172C394.748 172 392.208 171.322 389.762 169.914L379.783 187.246C385.257 190.398 391.237 192 397.552 192V172ZM390.072 170.1C387.566 168.533 385.645 166.563 384.191 164.115L366.994 174.325C370.1 179.557 374.299 183.827 379.473 187.06L390.072 170.1ZM384.191 164.115C382.848 161.853 382.172 159.423 382.172 156.62H362.172C362.172 162.937 363.777 168.907 366.994 174.325L384.191 164.115ZM382.172 156.62V116.84H362.172V156.62H382.172ZM372.172 126.84H452.453V106.84H372.172V126.84ZM462.453 116.84V104.24H442.453V116.84H462.453ZM462.453 104.24C462.453 100.412 460.494 97.7789 459.164 96.4489L445.021 110.591C444.171 109.741 442.453 107.588 442.453 104.24H462.453ZM459.164 96.4489C457.834 95.119 455.2 93.16 451.372 93.16V113.16C448.025 113.16 445.871 111.441 445.021 110.591L459.164 96.4489ZM451.372 93.16H372.172V113.16H451.372V93.16ZM382.172 103.16V77.6H362.172V103.16H382.172ZM372.172 87.6H452.633V67.6H372.172V87.6ZM452.633 87.6C455.504 87.6 457.917 88.3077 460.113 89.68L470.712 72.72C465.228 69.2922 459.121 67.6 452.633 67.6V87.6ZM460.307 89.7985C462.709 91.2246 464.568 93.0836 465.994 95.4854L483.191 85.2746C480.057 79.9964 475.796 75.7354 470.518 72.6014L460.307 89.7985ZM465.994 95.4854C467.337 97.7465 468.013 100.177 468.013 102.98H488.013C488.013 96.663 486.409 90.6935 483.191 85.2746L465.994 95.4854ZM468.013 102.98V182H488.013V102.98H468.013ZM478.013 172H397.552V192H478.013V172ZM398.812 166.44H452.453V146.44H398.812V166.44ZM462.453 156.44V139.7H442.453V156.44H462.453ZM452.453 129.7H397.733V149.7H452.453V129.7ZM387.733 139.7V155.36H407.733V139.7H387.733ZM387.733 155.36C387.733 159.188 389.691 161.821 391.021 163.151L405.164 149.009C406.014 149.859 407.733 152.012 407.733 155.36H387.733ZM391.021 163.151C392.351 164.481 394.985 166.44 398.812 166.44V146.44C402.16 146.44 404.314 148.159 405.164 149.009L391.021 163.151ZM492.934 182H482.934V192H492.934V182ZM496.354 90.38L487.874 85.08L487.814 85.1766L487.756 85.2746L496.354 90.38ZM505.714 81.2L510.82 89.7985L510.859 89.7754L510.897 89.752L505.714 81.2ZM576.274 77.6H586.274V67.6H576.274V77.6ZM576.274 103.16V113.16H586.274V103.16H576.274ZM518.494 182V192H528.494V182H518.494ZM502.934 182V102.98H482.934V182H502.934ZM502.934 102.98C502.934 100.177 503.61 97.7465 504.953 95.4854L487.756 85.2746C484.538 90.6935 482.934 96.663 482.934 102.98H502.934ZM504.834 95.68C506.401 93.1733 508.371 91.2522 510.82 89.7985L500.609 72.6014C495.377 75.7078 491.108 79.9067 487.874 85.08L504.834 95.68ZM510.897 89.752C513.32 88.2837 515.791 87.6 518.494 87.6V67.6C512.077 67.6 506.029 69.3162 500.531 72.648L510.897 89.752ZM518.494 87.6H576.274V67.6H518.494V87.6ZM566.274 77.6V103.16H586.274V77.6H566.274ZM576.274 93.16H519.574V113.16H576.274V93.16ZM519.574 93.16C515.747 93.16 513.113 95.119 511.783 96.4489L525.925 110.591C525.075 111.441 522.922 113.16 519.574 113.16V93.16ZM511.783 96.4489C510.453 97.7789 508.494 100.412 508.494 104.24H528.494C528.494 107.588 526.775 109.741 525.925 110.591L511.783 96.4489ZM508.494 104.24V182H528.494V104.24H508.494ZM518.494 172H492.934V192H518.494V172ZM600.632 178.58L595.332 187.06L595.429 187.12L595.526 187.179L600.632 178.58ZM591.272 169.22L582.673 174.325L582.732 174.423L582.792 174.52L591.272 169.22ZM591.272 90.38L582.792 85.08L582.732 85.1766L582.673 85.2746L591.272 90.38ZM600.632 81.2L605.737 89.7985L605.835 89.7404L605.932 89.68L600.632 81.2ZM681.092 81.2L675.792 89.68L675.888 89.7404L675.987 89.7985L681.092 81.2ZM690.272 90.38L681.673 95.4854V95.4854L690.272 90.38ZM690.272 169.22L681.673 164.115L690.272 169.22ZM681.092 178.58L686.197 187.179L686.295 187.12L686.392 187.06L681.092 178.58ZM667.772 156.08L674.843 163.151L674.843 163.151L667.772 156.08ZM667.772 103.52L674.843 96.449L674.843 96.4489L667.772 103.52ZM613.232 172C610.429 172 607.998 171.324 605.737 169.981L595.526 187.179C600.945 190.396 606.915 192 613.232 192V172ZM605.932 170.1C603.38 168.505 601.347 166.472 599.752 163.92L582.792 174.52C585.997 179.648 590.204 183.855 595.332 187.06L605.932 170.1ZM599.87 164.115C598.528 161.853 597.852 159.423 597.852 156.62H577.852C577.852 162.937 579.456 168.907 582.673 174.325L599.87 164.115ZM597.852 156.62V102.98H577.852V156.62H597.852ZM597.852 102.98C597.852 100.177 598.528 97.7465 599.87 95.4854L582.673 85.2746C579.456 90.6935 577.852 96.663 577.852 102.98H597.852ZM599.752 95.68C601.319 93.1733 603.289 91.2522 605.737 89.7985L595.526 72.6014C590.295 75.7078 586.025 79.9067 582.792 85.08L599.752 95.68ZM605.932 89.68C608.171 88.2806 610.532 87.6 613.232 87.6V67.6C606.812 67.6 600.773 69.3194 595.332 72.72L605.932 89.68ZM613.232 87.6H668.312V67.6H613.232V87.6ZM668.312 87.6C671.184 87.6 673.596 88.3077 675.792 89.68L686.392 72.72C680.907 69.2922 674.8 67.6 668.312 67.6V87.6ZM675.987 89.7985C678.388 91.2246 680.247 93.0836 681.673 95.4854L698.87 85.2746C695.737 79.9964 691.475 75.7354 686.197 72.6014L675.987 89.7985ZM681.673 95.4854C683.016 97.7466 683.692 100.177 683.692 102.98H703.692C703.692 96.663 702.088 90.6934 698.87 85.2746L681.673 95.4854ZM683.692 102.98V156.62H703.692V102.98H683.692ZM683.692 156.62C683.692 159.423 683.016 161.853 681.673 164.115L698.87 174.325C702.088 168.907 703.692 162.937 703.692 156.62H683.692ZM681.673 164.115C680.22 166.563 678.299 168.533 675.792 170.1L686.392 187.06C691.565 183.827 695.764 179.557 698.87 174.325L681.673 164.115ZM675.987 169.981C673.767 171.299 671.285 172 668.312 172V192C674.699 192 680.737 190.421 686.197 187.179L675.987 169.981ZM668.312 172H613.232V192H668.312V172ZM614.492 166.44H667.052V146.44H614.492V166.44ZM667.052 166.44C670.879 166.44 673.513 164.481 674.843 163.151L660.701 149.009C661.551 148.159 663.704 146.44 667.052 146.44V166.44ZM674.843 163.151C676.173 161.821 678.132 159.188 678.132 155.36H658.132C658.132 152.012 659.851 149.859 660.701 149.009L674.843 163.151ZM678.132 155.36V104.24H658.132V155.36H678.132ZM678.132 104.24C678.132 100.412 676.173 97.779 674.843 96.449L660.701 110.591C659.851 109.741 658.132 107.588 658.132 104.24H678.132ZM674.843 96.4489C673.513 95.119 670.879 93.16 667.052 93.16V113.16C663.704 113.16 661.551 111.441 660.701 110.591L674.843 96.4489ZM667.052 93.16H614.492V113.16H667.052V93.16ZM614.492 93.16C610.664 93.16 608.031 95.119 606.701 96.4489L620.843 110.591C619.993 111.441 617.839 113.16 614.492 113.16V93.16ZM606.701 96.4489C605.371 97.7789 603.412 100.412 603.412 104.24H623.412C623.412 107.588 621.693 109.741 620.843 110.591L606.701 96.4489ZM603.412 104.24V155.36H623.412V104.24H603.412ZM603.412 155.36C603.412 159.188 605.371 161.821 606.701 163.151L620.843 149.009C621.693 149.859 623.412 152.012 623.412 155.36H603.412ZM606.701 163.151C608.031 164.481 610.664 166.44 614.492 166.44V146.44C617.839 146.44 619.993 148.159 620.843 149.009L606.701 163.151Z" fill="url(#paint1_radial_192_20)" mask="url(#path-1-outside-1_192_20)"/>
<defs>
<linearGradient id="paint0_linear_192_20" x1="352" y1="0" x2="396.5" y2="357.5" gradientUnits="userSpaceOnUse">
<stop stop-color="white"/>
<stop offset="1" stop-color="white" stop-opacity="0"/>
</linearGradient>
<radialGradient id="paint1_radial_192_20" cx="0" cy="0" r="1" gradientUnits="userSpaceOnUse" gradientTransform="translate(224 113) rotate(9.49087) scale(824.79 2569.26)">
<stop stop-color="#D000BB"/>
<stop offset="1" stop-opacity="0"/>
</radialGradient>
</defs>
</svg>
